<?xml version="1.0" encoding="UTF-8" standalone="no"?>
<svg xmlns="http://www.w3.org/2000/svg" xmlns:xlink="http://www.w3.org/1999/xlink" width="35.000mm" height="20.276mm" viewBox="80.499992 -92.138031 35.000000 20.276062">
    <path transform="matrix(1,0,0,-1,0,0)" style="stroke:none;fill:#000000;fill-rule:evenodd" d="M91.125961,71.879242L91.150917,71.879776C97.992683,72.235535,104.587509,74.543991,110.157532,78.532898C111.621254,79.58609,112.910507,80.862808,113.977982,82.316162C114.939621,83.532776,115.474625,85.032654,115.499992,86.583206C115.405678,88.230026,114.469925,89.713043,113.0242,90.507217C111.817856,91.219147,110.482956,91.686386,109.095947,91.882111C106.640961,92.238449,104.146606,92.223267,101.696167,91.83699C95.978432,91.014175,90.542236,88.832108,85.842453,85.473297C84.37883,84.420013,83.089569,83.14328,82.022011,81.690048C81.060593,80.473312,80.525665,78.97348,80.499992,77.422974C80.594795,75.776184,81.530403,74.293259,82.975792,73.498444C84.182045,72.786819,85.516731,72.319778,86.903511,72.124069C88.299484,71.903229,89.713837,71.821243,91.125961,71.879242zM89.99958,83.308701C90.85453,83.416321,91.717354,83.447754,92.577881,83.40271C93.157433,84.832947,93.860001,86.210159,94.677689,87.518936L95.020752,88.169495C94.87381,88.109512,94.733162,88.035156,94.601212,87.946991C92.394325,86.620132,90.389755,84.982758,88.649101,83.085114L89.99958,83.308701zM82.744781,75.326874L82.749031,75.372025C82.820618,76.068497,82.998283,76.749908,83.275848,77.392715C83.718292,78.444855,84.272202,79.446747,84.927971,80.380966C84.618889,80.16954,84.31369,79.953125,84.011894,79.731491L83.964096,79.705475L83.913643,79.685287C83.620148,79.586899,83.299446,79.728851,83.176529,80.012939C83.076889,80.234406,83.130638,80.494354,83.310356,80.657654C84.264885,81.473938,85.368584,82.097412,86.560448,82.493515C88.653595,84.990234,91.129524,87.139023,93.895966,88.859863C90.764938,87.695572,87.84919,86.018997,85.267845,83.898712C83.896294,82.797928,82.765869,81.426529,81.947136,79.870087C81.344193,78.800751,81.211739,77.528198,81.581764,76.357666C81.821236,75.740097,82.211975,75.192688,82.718231,74.765549L82.744781,75.326874zM91.102592,72.749115L92.612396,72.845779C98.745651,73.444809,104.613129,75.643982,109.629128,79.223785C111.018639,80.221161,112.243439,81.430023,113.258926,82.80632C114.020523,83.785156,114.494148,84.957077,114.626404,86.190231C114.694534,87.521484,114.049606,88.789429,112.933914,89.518921C112.089439,90.105423,111.143051,90.529358,110.143188,90.769028C107.929031,91.275803,105.645988,91.408127,103.388123,91.160416C100.898468,90.923477,98.443176,90.408707,96.068001,89.625656L96.070656,89.625656L96.12429,89.615036C96.427788,89.530594,96.633698,89.247894,96.6203,88.933151C96.564507,88.500259,96.404381,88.087494,96.153503,87.730301L95.56987,86.732971L95.806183,86.911407C96.309166,87.253876,96.862244,87.516205,97.445572,87.689407C101.830978,89.055527,106.407349,89.708206,110.999802,89.622482C111.640961,89.596481,112.268402,89.431488,112.839378,89.138657C113.233047,88.894226,113.381134,88.394791,113.183517,87.975647C113.044586,87.67189,112.797203,87.431168,112.489944,87.300156C112.375542,87.23259,112.259781,87.167404,112.142639,87.104706L110.076813,86.108978C108.958771,85.592117,107.866562,85.021271,106.803894,84.398438C105.66449,83.695999,104.625137,82.842834,103.714188,81.862091L106.049263,82.032043C107.139404,82.111389,108.220459,82.284805,109.280754,82.550369C109.481651,82.683105,109.678917,82.821198,109.87236,82.964584L109.928116,82.990082C110.210312,83.103485,110.531921,82.983292,110.672134,82.713394C110.811661,82.433426,110.724747,82.0923,110.468735,81.912552C110.239281,81.669342,109.943298,81.498962,109.617455,81.423965C108.244057,81.048203,106.830963,80.836609,105.407738,80.793625L102.766251,80.600311C102.15181,79.63385,101.829086,78.510284,101.836899,77.365082L101.797073,77.064499C101.735558,76.756958,101.444519,76.5513,101.134308,76.597702C100.862129,76.630417,100.652245,76.852966,100.636169,77.126648C100.607819,78.28447,100.850983,79.432785,101.346199,80.479752C100.299393,80.4366,99.260971,80.270813,98.252777,79.985855C98.064461,79.945328,97.883163,79.877151,97.714813,79.783539L97.675514,79.748474C97.631516,79.646927,97.588272,79.544846,97.545937,79.442581L97.511948,79.392136L97.479027,79.349121C97.271835,79.120667,96.923843,79.088501,96.679253,79.276367C96.489227,79.414825,96.403023,79.655975,96.464699,79.882843C96.584206,80.451477,97.022789,80.899246,97.588951,81.029938C99.054619,81.444183,100.564072,81.683777,102.085968,81.743668C102.391632,82.187408,102.733414,82.605148,103.107727,82.992722C104.782661,84.593369,106.721115,85.893188,108.837852,86.834946L110.438995,87.583725L111.787888,88.283127L111.764519,88.291107C111.324806,88.414307,110.867958,88.464966,110.411911,88.441406C106.400078,88.46434,102.405479,87.91626,98.54805,86.81369C97.819267,86.572815,97.108223,86.281204,96.42009,85.941162C96.222656,85.799606,96.079948,85.595306,96.014893,85.361252L95.980377,85.310791C95.797577,85.067398,95.459503,85.003632,95.200256,85.163162C95.057137,85.250229,94.957306,85.393448,94.927277,85.558273C94.534126,84.826096,94.172302,84.077499,93.842865,83.314529C94.530029,83.258453,95.212822,83.157639,95.886909,83.012909C96.17643,82.933502,96.36158,82.650467,96.318665,82.353317C96.277306,82.046844,96.002838,81.826584,95.694672,81.852554L94.377106,82.058594L93.391457,82.161087C93.143387,81.49025,93.008217,80.783218,92.991043,80.068176L92.986794,80.006577C93.005234,79.810364,92.961578,79.612961,92.862526,79.442581C92.707352,79.18277,92.381195,79.082443,92.105766,79.20787C91.888306,79.310608,91.752151,79.532547,91.760574,79.772903C91.780647,80.607162,91.914429,81.434723,92.15834,82.232773C90.470413,82.265091,88.789909,82.00238,87.192406,81.456375C86.160004,80.261322,85.290047,78.935165,84.605087,77.512192C84.253326,76.794022,84.02282,76.022095,83.923203,75.228638L83.922142,74.953018C83.953323,74.705673,83.871765,74.456787,83.700157,74.275909C83.652649,74.236053,83.600906,74.201508,83.545616,74.173416C84.623337,73.559875,85.807678,73.15625,87.035744,72.983841C88.380325,72.77153,89.742531,72.692917,91.102592,72.749115z"/>
</svg>
